<?xml version="1.0" encoding="UTF-8"?>
<svg width="128" height="128" viewBox="0 0 128 128" xmlns="http://www.w3.org/2000/svg" role="img" aria-label="Email">
  <title>Email</title>
  <!-- Transparent background -->
  <rect width="128" height="128" fill="none"/>
  <!-- Envelope body (white) -->
  <rect x="12" y="30" width="104" height="68" rx="8" ry="8" fill="#FFFFFF"/>
  <!-- Colorful flap stripes to give Gmail-like multicolor feel -->
  <path d="M12 30 L64 72 L116 30 L116 98 L12 98 Z" fill="#FFFFFF"/>
  <path d="M12 30 L36 54 L64 72 L64 72 L12 98 Z" fill="#EA4335"/> <!-- red -->
  <path d="M36 54 L64 72 L92 54 L116 30 L64 72 Z" fill="#34A853"/> <!-- green -->
  <path d="M92 54 L116 30 L116 98 L92 74 L64 72 Z" fill="#4285F4"/> <!-- blue -->
  <path d="M36 54 L64 72 L92 54 L64 88 Z" fill="#FBBC05" opacity="0.0"/> <!-- optional yellow hint (kept transparent) -->
  <!-- Thin outline for clarity -->
  <rect x="12" y="30" width="104" height="68" rx="8" ry="8" fill="none" stroke="#e6e6e6" stroke-width="1"/>
</svg>